# xmcd
#
# Track frame offsets:
#	150
#	29222
#	45290
#	65500
#	83193
#	99406
#	115414
#	130575
#	146060
#	165707
#	181541
#
# Disc length: 2664 seconds
#
# Revision: 1
# Processed by: cddbd v1.5.2PL0 Copyright (c) Steve Scherf et al.
# Submitted via: audiograbber 1.83.01
#
DISCID=8f0a660b
DTITLE=Mammoth Mammoth - Vol. V - Mount The Mountain
DYEAR=2017
DGENRE=Rock
TTITLE0=Mount The Mountain
TTITLE1=Spellbound
TTITLE2=Hole In The Head
TTITLE3=Kickin' My Dog
TTITLE4=Procrastination
TTITLE5=Sleepwalker
TTITLE6=Epitome
TTITLE7=Hard Way Down
TTITLE8=Wild And Dead
TTITLE9=Cold Liquor
TTITLE10=Can't Get You Out Of My Head
EXTD=
EXTT0=
EXTT1=
EXTT2=
EXTT3=
EXTT4=
EXTT5=
EXTT6=
EXTT7=
EXTT8=
EXTT9=
EXTT10=
PLAYORDER=
